# xmcd CD database file
#
# Track frame offsets:
#	150
#	21104
#	58335
#	72678
#	83458
#	96338
#	124702
#	146055
#	159825
#	183228
#	215375
#	223950
#
# Disc length: 3343 seconds
#
# Revision: 0
# Processed by: cddbd v1.5PL3 Copyright (c) Steve Scherf et al.
# Submitted via: CDex 1.50beta9
#
DISCID=b10d0d0c
DTITLE=Donald Harrison - Big Chief
DYEAR=2002
DGENRE=Jazz
TTITLE0=Hiko Hiko
TTITLE1=Uptown Ruler
TTITLE2=Big Chief
TTITLE3=Walkin Home
TTITLE4=Shave Em Dry
TTITLE5=Hu-Ta-Nay
TTITLE6=Indian Blues
TTITLE7=Shallow Water
TTITLE8=Ja-Ki-Mo-Fi-Na-Hay
TTITLE9=Indian Red
TTITLE10=Two-Way-Pocky-Way
TTITLE11=Cherokee
EXTD=YEAR: 2002
EXTT0=
EXTT1=
EXTT2=
EXTT3=
EXTT4=
EXTT5=
EXTT6=
EXTT7=
EXTT8=
EXTT9=
EXTT10=
EXTT11=
PLAYORDER=
